# xmcd
#
# Track frame offsets:
#	150
#	16402
#	34327
#	49252
#	66052
#	82552
#	97777
#	109626
#	122452
#	131602
#	148627
#	162052
#	180427
#	192052
#	210652
#	221002
#	233527
#	243426
#
# Disc length: 3294 seconds
#
# Revision: 0
# Processed by: cddbd v1.4PL0 Copyright (c) Steve Scherf et al.
# Submitted via: dBpowerAMP V4.0
#
DISCID=e10cdc12
DTITLE=Unknown Hinson - The Future is Unknown...
DYEAR=1999
DGENRE=Country
TTITLE0=Venus Bound
TTITLE1=I Make Faces (When I Make Love)
TTITLE2=Desert Luau
TTITLE3=In the Trunk of My Cadillac Car
TTITLE4=Man to Man
TTITLE5=Closer to the Light
TTITLE6=Don't Bite the Lips That Kiss You
TTITLE7=Foggy Windows
TTITLE8=Silver Platter
TTITLE9=Put Out or Get Out
TTITLE10=Sweet Pain
TTITLE11=Hippie Girl
TTITLE12=My Heart's on the Line
TTITLE13=Fish Camp Woman (Live)
TTITLE14=Pregnant Again
TTITLE15=Rock'n'Roll is Straight from Hell
TTITLE16=Don't Look at Me
TTITLE17=Theme from "The Unknown Hinson TV Show" (Instrumental)
EXTD=
EXTT0=
EXTT1=
EXTT2=
EXTT3=
EXTT4=
EXTT5=
EXTT6=
EXTT7=
EXTT8=
EXTT9=
EXTT10=
EXTT11=
EXTT12=
EXTT13=
EXTT14=
EXTT15=
EXTT16=
EXTT17=
PLAYORDER=
